<?xml version="1.0" encoding="UTF-8"?>
<!DOCTYPE svg PUBLIC "-//W3C//DTD SVG 1.1//EN" "http://www.w3.org/Graphics/SVG/1.1/DTD/svg11.dtd">
<svg version="1.1" xmlns="http://www.w3.org/2000/svg" xmlns:xlink="http://www.w3.org/1999/xlink" x="0" y="0" width="1000" height="1000" viewBox="0, 0, 1000, 1000">
  <g id="Layer_1">
    <path d="M504,144 C628.264,144 728,400.736 728,525 C728,649.264 627.264,750 503,750 C378.736,750 278,649.264 278,525 C278,400.736 379.736,144 504,144 z M708.123,446.234 L706.587,447.969 C706.682,486.833 692.351,529.325 666.785,559.812 C629.304,604.507 520.038,639.525 501.086,673.075 C480.624,709.297 515.655,730.196 548.76,726.386 C671.993,712.204 744.444,558.852 708.123,446.234 z M495.756,183.988 C442.246,184.138 408.198,215.089 379.497,257.468 C339.101,317.118 317.544,387.704 301.051,457.175 L301.052,457.189 C329.079,380.115 413.935,318.464 478.012,273.372 C493.578,262.419 555.442,190.12 501.338,184.425 L495.756,183.988 z" fill="#4C8F2D"/>
  </g>
</svg>
