<?xml version="1.0" encoding="UTF-8"?>
<!DOCTYPE svg PUBLIC "-//W3C//DTD SVG 1.1//EN" "http://www.w3.org/Graphics/SVG/1.1/DTD/svg11.dtd">
<svg version="1.1" xmlns="http://www.w3.org/2000/svg" xmlns:xlink="http://www.w3.org/1999/xlink" x="0" y="0" width="1000" height="1000" viewBox="0, 0, 1000, 1000">
  <g id="Layer_1">
    <path d="M501.636,4.109 C705.008,4.109 868.236,424.284 868.236,627.655 C868.236,831.026 703.371,995.891 500,995.891 C296.629,995.891 131.764,831.026 131.764,627.655 C131.764,424.284 298.266,4.109 501.637,4.109 z M835.706,498.747 L833.192,501.586 C833.347,565.19 809.892,634.734 768.051,684.628 C706.709,757.776 527.885,815.087 496.867,869.995 C463.379,929.276 520.712,963.48 574.891,957.245 C776.576,934.034 895.148,683.057 835.706,498.747 z M488.144,69.553 C400.569,69.799 344.846,120.453 297.875,189.812 C231.763,287.435 196.483,402.955 169.49,516.653 L169.49,516.674 C215.36,390.535 354.236,289.637 459.105,215.84 C484.58,197.913 585.827,79.59 497.279,70.269 L488.144,69.553 z" fill="#4C8F2D"/>
  </g>
</svg>
